<?xml version="1.0" encoding="UTF-8" standalone="no"?>
<!-- Created with Inkscape (http://www.inkscape.org/) -->

<svg
   version="1.1"
   id="svg1"
   width="3447.1533"
   height="1252.3031"
   viewBox="0 0 3447.1533 1252.3031"
   sodipodi:docname="logo.svg"
   inkscape:version="1.3 (0e150ed, 2023-07-21)"
   xmlns:inkscape="http://www.inkscape.org/namespaces/inkscape"
   xmlns:sodipodi="http://sodipodi.sourceforge.net/DTD/sodipodi-0.dtd"
   xmlns="http://www.w3.org/2000/svg"
   xmlns:svg="http://www.w3.org/2000/svg">
  <defs
     id="defs1" />
  <sodipodi:namedview
     id="namedview1"
     pagecolor="#ffffff"
     bordercolor="#000000"
     borderopacity="0.25"
     inkscape:showpageshadow="2"
     inkscape:pageopacity="0.0"
     inkscape:pagecheckerboard="0"
     inkscape:deskcolor="#d1d1d1"
     showgrid="false"
     inkscape:zoom="0.24642435"
     inkscape:cx="1990.4689"
     inkscape:cy="580.2998"
     inkscape:window-width="1920"
     inkscape:window-height="1027"
     inkscape:window-x="0"
     inkscape:window-y="25"
     inkscape:window-maximized="0"
     inkscape:current-layer="g1">
    <inkscape:page
       x="0"
       y="0"
       inkscape:label="1"
       id="page1"
       width="3447.1533"
       height="1252.3031"
       margin="0"
       bleed="0" />
    <inkscape:grid
       id="grid18"
       units="px"
       originx="-142.17999"
       originy="-576.19591"
       spacingx="1"
       spacingy="1"
       empcolor="#0099e5"
       empopacity="0.30196078"
       color="#0099e5"
       opacity="0.14901961"
       empspacing="5"
       dotted="false"
       gridanglex="30"
       gridanglez="30"
       visible="false" />
  </sodipodi:namedview>
  <g
     id="g1"
     inkscape:groupmode="layer"
     inkscape:label="1"
     transform="translate(-142.17999,-576.19594)">
    <path
       id="path9"
       d="M 21744.1,5995.7 C 20680.8,6998.9 19538,9601.52 18423.3,11179 c -124.5,20.6 -248.1,11.8 -370.4,-30.7 -65.7,-22.8 -131.1,-55.4 -196.2,-96.7 C 18695.3,9606.89 19534.2,7970 20328.1,7237 l 100.2,-87.9 1315.8,-1153.4"
       style="opacity:1;fill:#e9f6ff;fill-opacity:1;fill-rule:evenodd;stroke:none"
       transform="matrix(0.13333333,0,0,-0.13333333,0,2404.6933)" />
    <path
       id="path14"
       d="m 13889.3,5459.6 c 1339.2,-156.6 2580.8,4711.4 3967.4,5592 65.1,41.3 130.5,73.9 196.2,96.7 122.3,42.5 245.9,51.3 370.4,30.7 130,-21.6 261.2,-75.3 393.2,-156.4 l -924.7,823.1 -436.7,388.7 c -284.9,197 -565.7,271.4 -840.5,176 -1402.7,-487.1 -2669.6,-5402 -4002.6,-5684.5 269.7,-422.6 533.1,-784.6 791.8,-1012.7 163.6,-144.2 325.2,-234.9 485.5,-253.6"
       style="fill:#ffe3ff;fill-opacity:1;fill-rule:evenodd;stroke:none"
       transform="matrix(0.13333333,0,0,-0.13333333,0,2404.6933)" />
    <path
       id="path15"
       d="m 21888.4,5869.3 1277,-1119.4 c -225.6,216.3 -454.8,503.8 -686.5,837.7 -288.6,415.8 -581.2,903.5 -875.7,1414.6 -930.5,1614.91 -1880.3,3463.6 -2786.7,4020.4 -132,81.1 -263.2,134.8 -393.2,156.4 1114.7,-1577.48 2257.5,-4180.1 3320.8,-5183.3 l 144.3,-126.4"
       style="fill:#ffe3ff;fill-opacity:1;fill-rule:evenodd;stroke:none"
       transform="matrix(0.13333333,0,0,-0.13333333,0,2404.6933)" />
    <path
       id="path10"
       d="m 21603.2,7002.2 c 294.5,-511.1 587.1,-998.8 875.7,-1414.6 1071.4,-113.1 2041.7,2188.6 2999.8,4465.5 l -1435.3,1259.4 C 23251.1,9429.89 22458.9,7547.3 21603.2,7002.2"
       style="opacity:1;fill:#e9f6ff;fill-opacity:1;fill-rule:evenodd;stroke:none"
       transform="matrix(0.13333333,0,0,-0.13333333,0,2404.6933)" />
    <path
       id="path8"
       d="m 12612,6725.9 c 1333,282.5 2599.9,5197.4 4002.6,5684.5 274.8,95.4 555.6,21 840.5,-176 l -1147.2,1021.2 -153.6,136.7 c -332.1,273 -659.1,390.8 -978,280.1 C 13942.6,13244 12830.2,9394.19 11673.3,8280.49 11995.9,7755.4 12308,7202.2 12612,6725.9"
       style="opacity:1;fill:#e9f6ff;fill-opacity:1;fill-rule:evenodd;stroke:none"
       transform="matrix(0.13333333,0,0,-0.13333333,0,2404.6933)" />
    <text
       xml:space="preserve"
       style="font-size:466.667px;fill:#308af2;fill-opacity:1"
       x="1223.2928"
       y="1012.9423"
       id="text16"><tspan
         sodipodi:role="line"
         id="tspan16"
         x="1223.2928"
         y="1012.9423"
         style="font-style:normal;font-variant:normal;font-weight:500;font-stretch:normal;font-size:466.667px;font-family:Futura;-inkscape-font-specification:'Futura Medium';fill:#308af2;fill-opacity:1"><tspan
           style="font-style:italic;font-variant:normal;font-weight:500;font-stretch:normal;font-family:'Helvetica Neue';-inkscape-font-specification:'Helvetica Neue Medium Italic'"
           id="tspan17">koop</tspan><tspan
           style="font-style:normal;font-variant:normal;font-weight:200;font-stretch:normal;font-family:'Helvetica Neue';-inkscape-font-specification:'Helvetica Neue Ultra-Light'"
           id="tspan18">learn</tspan></tspan></text>
    <path
       id="path3"
       d="m 3628.67,8593.11 c -401.38,364.14 -762.69,1088.92 -1124.01,1813.69 l -1438.31,1262.1 c 371.87,-746 743.74,-1491.9 1159.28,-1844.71 L 3628.67,8593.11"
       style="fill:#ffffff;fill-opacity:1;fill-rule:evenodd;stroke:none"
       transform="matrix(0.13333333,0,0,-0.13333333,0,2404.6933)" />
    <path
       id="path4"
       d="m 3628.66,8593.12 c -401.37,364.15 -762.68,1088.92 -1124,1813.68 l -1438.31,1262.1 c 371.87,-746 743.74,-1491.9 1159.28,-1844.71 L 3628.66,8593.12"
       style="fill:#ffffff;fill-opacity:1;fill-rule:evenodd;stroke:none"
       transform="matrix(0.13333333,0,0,-0.13333333,0,2404.6933)" />
    <path
       id="path5"
       d="m 3549.62,8662.48 c -313.98,324.92 -605.09,868.41 -891.12,1437.02 -0.01,0 -0.02,0 -0.03,0.1 -51.35,101.7 -102.58,204.5 -153.81,307.2 l -1438.31,1262.1 c 371.87,-746 743.74,-1491.9 1159.28,-1844.71 L 3549.62,8662.48"
       style="opacity:1;fill:#e9f6ff;fill-opacity:1;fill-rule:evenodd;stroke:none"
       transform="matrix(0.13333333,0,0,-0.13333333,0,2404.6933)" />
    <path
       id="path6"
       d="m 4337.7,8373.96 c 1116.52,276.59 2516.64,3016.54 3749.09,3136.04 217.85,21.1 439.9,-23.6 654.68,-134.1 l -1089.42,955.7 -118.48,103.9 c -285.65,235.3 -580.24,366.1 -885.08,336.5 C 5532.56,12663.9 4279.18,10407.3 3223.33,9776.23 l 719.64,-631.45 c 130.94,-262.67 261.88,-525.33 394.73,-770.82"
       style="opacity:1;fill:#e9f6ff;fill-opacity:1;fill-rule:evenodd;stroke:none"
       transform="matrix(0.13333333,0,0,-0.13333333,0,2404.6933)" />
    <path
       id="path16"
       d="m 25478.7,10053.1 c -958.1,-2276.9 -1928.4,-4578.6 -2999.8,-4465.5 231.7,-333.9 460.9,-621.4 686.5,-837.7 241.6,-231.7 479.2,-381.6 711.5,-419 1093.2,-176.1 2068.1,2140.7 3043.1,4457.54 l -1441.3,1264.66"
       style="fill:#ffe3ff;fill-opacity:1;fill-rule:evenodd;stroke:none"
       transform="matrix(0.13333333,0,0,-0.13333333,0,2404.6933)" />
    <path
       id="path7"
       d="m 11867,7068.2 c -654.1,656.4 -1338.6,2101.44 -2081.28,3166.8 -86.05,16.7 -172.91,21.4 -260.62,12.9 -111.57,-10.8 -224.53,-43.1 -338.52,-93.1 513.56,-866.56 1001.72,-1693.92 1475.32,-2024.1 L 11867,7068.2"
       style="opacity:1;fill:#e9f6ff;fill-opacity:1;fill-rule:evenodd;stroke:none"
       transform="matrix(0.13333333,0,0,-0.13333333,0,2404.6933)" />
    <path
       id="path12"
       d="m 5489.03,7099.4 c 1060.31,-194.1 2441.97,2504.71 3697.55,3055.4 113.99,50 226.95,82.3 338.52,93.1 87.71,8.5 174.57,3.8 260.62,-12.9 219.18,-42.6 433.08,-162.7 642.18,-338.33 L 8741.47,11375.9 c -214.78,110.5 -436.83,155.2 -654.68,134.1 C 6854.34,11390.5 5454.22,8650.55 4337.7,8373.96 4571.18,7942.5 4810.56,7564 5066.17,7331.8 c 135.85,-123.4 276.28,-205.6 422.86,-232.4"
       style="fill:#ffe3ff;fill-opacity:1;fill-rule:evenodd;stroke:none"
       transform="matrix(0.13333333,0,0,-0.13333333,0,2404.6933)" />
    <path
       id="path13"
       d="m 12612,6725.9 c -304,476.3 -616.1,1029.5 -938.7,1554.59 -397.6,647.13 -811.2,1251.43 -1245.4,1616.18 -209.1,175.63 -423,295.73 -642.18,338.33 C 10528.4,9169.64 11212.9,7724.6 11867,7068.2 l 194.3,-171.3 1342.5,-1183.7 c -258.7,228.1 -522.1,590.1 -791.8,1012.7"
       style="fill:#ffe3ff;fill-opacity:1;fill-rule:evenodd;stroke:none"
       transform="matrix(0.13333333,0,0,-0.13333333,0,2404.6933)" />
    <path
       id="path11"
       d="m 4337.7,8373.96 c -132.85,245.49 -263.79,508.15 -394.73,770.82 l -719.64,631.45 -718.67,630.57 c 51.25,-102.8 102.5,-205.6 153.86,-307.4 310.75,-615.7 625.69,-1193.78 970.13,-1506.26 L 5066.17,7331.8 C 4810.56,7564 4571.18,7942.5 4337.7,8373.96"
       style="fill:#ffe3ff;fill-opacity:1;fill-rule:evenodd;stroke:none"
       transform="matrix(0.13333333,0,0,-0.13333333,0,2404.6933)" />
  </g>
</svg>
