<?xml version="1.0" encoding="UTF-8" standalone="no"?>
<!-- Created with Inkscape (http://www.inkscape.org/) -->

<svg
   version="1.1"
   id="svg1"
   width="3447.1533"
   height="1676.0081"
   viewBox="0 0 3447.1533 1676.0081"
   sodipodi:docname="logo.svg"
   inkscape:version="1.3 (0e150ed, 2023-07-21)"
   xmlns:inkscape="http://www.inkscape.org/namespaces/inkscape"
   xmlns:sodipodi="http://sodipodi.sourceforge.net/DTD/sodipodi-0.dtd"
   xmlns="http://www.w3.org/2000/svg"
   xmlns:svg="http://www.w3.org/2000/svg">
  <defs
     id="defs1" />
  <sodipodi:namedview
     id="namedview1"
     pagecolor="#ffffff"
     bordercolor="#000000"
     borderopacity="0.25"
     inkscape:showpageshadow="2"
     inkscape:pageopacity="0.0"
     inkscape:pagecheckerboard="0"
     inkscape:deskcolor="#d1d1d1"
     showgrid="false"
     inkscape:zoom="0.13007729"
     inkscape:cx="1118.5657"
     inkscape:cy="-545.82933"
     inkscape:window-width="1712"
     inkscape:window-height="1027"
     inkscape:window-x="0"
     inkscape:window-y="43"
     inkscape:window-maximized="0"
     inkscape:current-layer="g1">
    <inkscape:page
       x="0"
       y="0"
       inkscape:label="1"
       id="page1"
       width="3447.1533"
       height="1676.0081"
       margin="0"
       bleed="0" />
    <inkscape:grid
       id="grid18"
       units="px"
       originx="-142.17999"
       originy="-152.49092"
       spacingx="1"
       spacingy="1"
       empcolor="#0099e5"
       empopacity="0.30196078"
       color="#0099e5"
       opacity="0.14901961"
       empspacing="5"
       dotted="false"
       gridanglex="30"
       gridanglez="30"
       visible="false" />
  </sodipodi:namedview>
  <g
     id="g1"
     inkscape:groupmode="layer"
     inkscape:label="logo"
     transform="translate(-142.18,-152.49097)">
    <g
       id="g3"
       inkscape:label="back_wave"
       style="display:inline;opacity:1">
      <path
         id="path9"
         d="M 21744.1,5995.7 C 20680.8,6998.9 19538,9601.52 18423.3,11179 c -124.5,20.6 -248.1,11.8 -370.4,-30.7 -65.7,-22.8 -131.1,-55.4 -196.2,-96.7 C 18695.3,9606.89 19534.2,7970 20328.1,7237 l 100.2,-87.9 1315.8,-1153.4"
         style="opacity:1;fill:#569daa;fill-opacity:1;fill-rule:evenodd;stroke:none"
         transform="matrix(0.13333333,0,0,-0.13333333,0,2404.6933)" />
      <path
         id="path10"
         d="m 21603.2,7002.2 c 294.5,-511.1 587.1,-998.8 875.7,-1414.6 1071.4,-113.1 2041.7,2188.6 2999.8,4465.5 l -1435.3,1259.4 C 23251.1,9429.89 22458.9,7547.3 21603.2,7002.2"
         style="opacity:1;fill:#569daa;fill-opacity:1;fill-rule:evenodd;stroke:none"
         transform="matrix(0.13333333,0,0,-0.13333333,0,2404.6933)" />
      <path
         id="path8"
         d="m 12612,6725.9 c 1333,282.5 2599.9,5197.4 4002.6,5684.5 274.8,95.4 555.6,21 840.5,-176 l -1147.2,1021.2 -153.6,136.7 c -332.1,273 -659.1,390.8 -978,280.1 C 13942.6,13244 12830.2,9394.19 11673.3,8280.49 11995.9,7755.4 12308,7202.2 12612,6725.9"
         style="opacity:1;fill:#569daa;fill-opacity:1;fill-rule:evenodd;stroke:none"
         transform="matrix(0.13333333,0,0,-0.13333333,0,2404.6933)" />
      <path
         id="path3"
         d="m 3628.67,8593.11 c -401.38,364.14 -762.69,1088.92 -1124.01,1813.69 l -1438.31,1262.1 c 371.87,-746 743.74,-1491.9 1159.28,-1844.71 L 3628.67,8593.11"
         style="fill:#569daa;fill-opacity:1;fill-rule:evenodd;stroke:none"
         transform="matrix(0.13333333,0,0,-0.13333333,0,2404.6933)" />
      <path
         id="path4"
         d="m 3628.66,8593.12 c -401.37,364.15 -762.68,1088.92 -1124,1813.68 l -1438.31,1262.1 c 371.87,-746 743.74,-1491.9 1159.28,-1844.71 L 3628.66,8593.12"
         style="fill:#569daa;fill-opacity:1;fill-rule:evenodd;stroke:none"
         transform="matrix(0.13333333,0,0,-0.13333333,0,2404.6933)" />
      <path
         id="path5"
         d="m 3549.62,8662.48 c -313.98,324.92 -605.09,868.41 -891.12,1437.02 -0.01,0 -0.02,0 -0.03,0.1 -51.35,101.7 -102.58,204.5 -153.81,307.2 l -1438.31,1262.1 c 371.87,-746 743.74,-1491.9 1159.28,-1844.71 L 3549.62,8662.48"
         style="opacity:1;fill:#569daa;fill-opacity:1;fill-rule:evenodd;stroke:none"
         transform="matrix(0.13333333,0,0,-0.13333333,0,2404.6933)" />
      <path
         id="path6"
         d="m 4337.7,8373.96 c 1116.52,276.59 2516.64,3016.54 3749.09,3136.04 217.85,21.1 439.9,-23.6 654.68,-134.1 l -1089.42,955.7 -118.48,103.9 c -285.65,235.3 -580.24,366.1 -885.08,336.5 C 5532.56,12663.9 4279.18,10407.3 3223.33,9776.23 l 719.64,-631.45 c 130.94,-262.67 261.88,-525.33 394.73,-770.82"
         style="opacity:1;fill:#569daa;fill-opacity:1;fill-rule:evenodd;stroke:none"
         transform="matrix(0.13333333,0,0,-0.13333333,0,2404.6933)" />
      <path
         id="path7"
         d="m 11867,7068.2 c -654.1,656.4 -1338.6,2101.44 -2081.28,3166.8 -86.05,16.7 -172.91,21.4 -260.62,12.9 -111.57,-10.8 -224.53,-43.1 -338.52,-93.1 513.56,-866.56 1001.72,-1693.92 1475.32,-2024.1 L 11867,7068.2"
         style="opacity:1;fill:#569daa;fill-opacity:1;fill-rule:evenodd;stroke:none"
         transform="matrix(0.13333333,0,0,-0.13333333,0,2404.6933)" />
    </g>
    <g
       id="g2"
       inkscape:label="front_wave"
       style="display:inline;opacity:1">
      <path
         id="path14"
         d="m 13889.3,5459.6 c 1339.2,-156.6 2580.8,4711.4 3967.4,5592 65.1,41.3 130.5,73.9 196.2,96.7 122.3,42.5 245.9,51.3 370.4,30.7 130,-21.6 261.2,-75.3 393.2,-156.4 l -924.7,823.1 -436.7,388.7 c -284.9,197 -565.7,271.4 -840.5,176 -1402.7,-487.1 -2669.6,-5402 -4002.6,-5684.5 269.7,-422.6 533.1,-784.6 791.8,-1012.7 163.6,-144.2 325.2,-234.9 485.5,-253.6"
         style="fill:#87cbb9;fill-opacity:1;fill-rule:evenodd;stroke:none"
         transform="matrix(0.13333333,0,0,-0.13333333,0,2404.6933)" />
      <path
         id="path15"
         d="m 21888.4,5869.3 1277,-1119.4 c -225.6,216.3 -454.8,503.8 -686.5,837.7 -288.6,415.8 -581.2,903.5 -875.7,1414.6 -930.5,1614.91 -1880.3,3463.6 -2786.7,4020.4 -132,81.1 -263.2,134.8 -393.2,156.4 1114.7,-1577.48 2257.5,-4180.1 3320.8,-5183.3 l 144.3,-126.4"
         style="fill:#87cbb9;fill-opacity:1;fill-rule:evenodd;stroke:none"
         transform="matrix(0.13333333,0,0,-0.13333333,0,2404.6933)" />
      <path
         id="path16"
         d="m 25478.7,10053.1 c -958.1,-2276.9 -1928.4,-4578.6 -2999.8,-4465.5 231.7,-333.9 460.9,-621.4 686.5,-837.7 241.6,-231.7 479.2,-381.6 711.5,-419 1093.2,-176.1 2068.1,2140.7 3043.1,4457.54 l -1441.3,1264.66"
         style="fill:#87cbb9;fill-opacity:1;fill-rule:evenodd;stroke:none"
         transform="matrix(0.13333333,0,0,-0.13333333,0,2404.6933)" />
      <path
         id="path12"
         d="m 5489.03,7099.4 c 1060.31,-194.1 2441.97,2504.71 3697.55,3055.4 113.99,50 226.95,82.3 338.52,93.1 87.71,8.5 174.57,3.8 260.62,-12.9 219.18,-42.6 433.08,-162.7 642.18,-338.33 L 8741.47,11375.9 c -214.78,110.5 -436.83,155.2 -654.68,134.1 C 6854.34,11390.5 5454.22,8650.55 4337.7,8373.96 4571.18,7942.5 4810.56,7564 5066.17,7331.8 c 135.85,-123.4 276.28,-205.6 422.86,-232.4"
         style="fill:#87cbb9;fill-opacity:1;fill-rule:evenodd;stroke:none"
         transform="matrix(0.13333333,0,0,-0.13333333,0,2404.6933)" />
      <path
         id="path13"
         d="m 12612,6725.9 c -304,476.3 -616.1,1029.5 -938.7,1554.59 -397.6,647.13 -811.2,1251.43 -1245.4,1616.18 -209.1,175.63 -423,295.73 -642.18,338.33 C 10528.4,9169.64 11212.9,7724.6 11867,7068.2 l 194.3,-171.3 1342.5,-1183.7 c -258.7,228.1 -522.1,590.1 -791.8,1012.7"
         style="fill:#87cbb9;fill-opacity:1;fill-rule:evenodd;stroke:none"
         transform="matrix(0.13333333,0,0,-0.13333333,0,2404.6933)" />
      <path
         id="path11"
         d="m 4337.7,8373.96 c -132.85,245.49 -263.79,508.15 -394.73,770.82 l -719.64,631.45 -718.67,630.57 c 51.25,-102.8 102.5,-205.6 153.86,-307.4 310.75,-615.7 625.69,-1193.78 970.13,-1506.26 L 5066.17,7331.8 C 4810.56,7564 4571.18,7942.5 4337.7,8373.96"
         style="fill:#87cbb9;fill-opacity:1;fill-rule:evenodd;stroke:none"
         transform="matrix(0.13333333,0,0,-0.13333333,0,2404.6933)" />
    </g>
    <g
       id="text16"
       style="font-size:466.667px;fill:#87cbb9;fill-opacity:1;stroke:none;stroke-width:19.6;stroke-linecap:round;stroke-dasharray:none;stroke-opacity:0.826506;paint-order:markers stroke fill"
       aria-label="kooplearn"
       inkscape:label="text"
       transform="translate(-268.86472,-527.25112)">
      <path
         style="font-style:italic;font-weight:500;font-family:'Helvetica Neue';-inkscape-font-specification:'Helvetica Neue Medium Italic';fill:#87cbb9;fill-opacity:1;stroke:none;stroke-width:19.6;stroke-linecap:round;stroke-dasharray:none;stroke-opacity:0.826506;paint-order:markers stroke fill"
         d="m 1286.7596,679.74209 h 53.2 l -39.2,188.53346 0.9333,0.93334 109.2001,-97.5334 h 67.2 l -106.4,88.66673 58.8,152.60008 h -58.8 l -42.4667,-117.13339 -41.0667,35.00002 -17.2667,82.13337 h -53.2001 z m 318.7331,127.40009 q -20.5334,0 -35.9334,10.26667 -14.9333,10.26668 -25.2,26.13335 -10.2667,15.40001 -15.4,34.53336 -4.6667,19.13335 -4.6667,37.33336 0,26.60002 13.0667,44.33336 13.5334,17.73335 42.4667,17.73335 20.5334,0 35.4667,-9.80001 15.4,-10.26667 25.6667,-25.66668 10.2667,-15.86668 14.9333,-35.00003 5.1334,-19.60001 5.1334,-37.80002 0,-26.60002 -13.5334,-44.33337 -13.0666,-17.73334 -42,-17.73334 z m -28.9334,212.33352 q -50.4,0 -77.9333,-27.06673 -27.5334,-27.53335 -27.5334,-78.40005 0,-29.86669 9.8,-56.46671 9.8,-27.06668 27.5334,-47.60003 18.2,-20.53335 43.4,-32.66669 25.6667,-12.13334 56.9334,-12.13334 50.4,0 77.9334,26.60002 27.5333,26.13335 27.5333,77.00005 0,31.73336 -9.3333,59.26671 -9.3334,27.53335 -27.5334,48.0667 -17.7333,20.06668 -43.4,31.73337 -25.2,11.6667 -57.4001,11.6667 z m 305.6662,-212.33352 q -20.5333,0 -35.9334,10.26667 -14.9333,10.26668 -25.2,26.13335 -10.2666,15.40001 -15.4,34.53336 -4.6667,19.13335 -4.6667,37.33336 0,26.60002 13.0667,44.33336 13.5334,17.73335 42.4667,17.73335 20.5334,0 35.4667,-9.80001 15.4,-10.26667 25.6667,-25.66668 10.2667,-15.86668 14.9333,-35.00003 5.1334,-19.60001 5.1334,-37.80002 0,-26.60002 -13.5334,-44.33337 -13.0666,-17.73334 -42,-17.73334 z m -28.9334,212.33352 q -50.4,0 -77.9333,-27.06673 -27.5334,-27.53335 -27.5334,-78.40005 0,-29.86669 9.8,-56.46671 9.8,-27.06668 27.5334,-47.60003 18.2,-20.53335 43.4,-32.66669 25.6667,-12.13334 56.9334,-12.13334 50.4,0 77.9334,26.60002 27.5333,26.13335 27.5333,77.00005 0,31.73336 -9.3333,59.26671 -9.3334,27.53335 -27.5334,48.0667 -17.7333,20.06668 -43.4,31.73337 -25.2,11.6667 -57.4001,11.6667 z M 2089.425,915.40892 q 0,13.06668 2.8,24.26668 3.2666,11.20001 9.3333,19.60002 6.5333,8.4 16.8,13.53334 10.2667,4.66667 24.2667,4.66667 21.4667,0 36.8667,-9.33334 15.8667,-9.80001 25.6667,-25.20002 10.2667,-15.40001 14.9333,-34.53335 5.1334,-19.13335 5.1334,-38.2667 0,-13.06667 -3.2667,-24.26668 -2.8,-11.66668 -9.3333,-20.06668 -6.5334,-8.86667 -16.8001,-13.53334 -9.8,-5.13334 -23.8,-5.13334 -21.4667,0 -37.3333,9.80001 -15.4,9.8 -25.6667,25.66668 -9.8,15.40001 -14.9334,35.00002 -4.6666,19.13335 -4.6666,37.80003 z m -25.2,-143.73343 h 52.7333 l -7,30.80002 0.9333,0.93333 q 12.6001,-18.20001 33.1334,-28.00002 20.5334,-10.26667 42.9334,-10.26667 22.4,0 39.6667,7.46667 17.2666,7.46667 28.4667,21.00002 11.6666,13.06667 17.2666,31.73335 6.0667,18.20001 6.0667,39.6667 0,27.53335 -7.4667,55.53337 -7.4666,27.53335 -22.8667,49.4667 -15.4,21.93335 -38.7333,35.93334 -23.3334,13.5334 -54.6001,13.5334 -26.6,0 -47.1333,-8.8667 -20.5334,-9.3334 -31.7334,-35.00004 h -0.9333 l -26.1334,126.46674 h -53.2 z"
         id="path1" />
      <path
         style="font-weight:200;font-family:'Helvetica Neue';-inkscape-font-specification:'Helvetica Neue Ultra-Light';fill:#569daa;fill-opacity:1;stroke:none;stroke-width:19.6;stroke-linecap:round;stroke-dasharray:none;stroke-opacity:0.826506;paint-order:markers stroke fill"
         d="m 2352.1576,679.74209 v 333.20021 h -17.7333 V 679.74209 Z m 63.4664,215.60015 v 2.8 q 0,21.00002 5.6,40.13336 5.6,19.13335 16.3333,33.60003 11.2,14.46667 27.5334,22.86668 16.8,8.39999 38.7333,8.39999 35.9334,0 56.9334,-18.66666 21,-19.13335 28.9333,-52.73337 h 17.7334 q -7.9333,42.00002 -34.5334,64.40004 -26.1333,22.39999 -69.5333,22.39999 -26.6001,0 -46.6667,-9.3333 -19.6001,-9.80002 -33.1334,-26.13337 -13.0667,-16.80001 -19.6,-39.20002 -6.5334,-22.86669 -6.5334,-49.00004 0,-25.20001 6.5334,-48.0667 7,-23.33335 20.5333,-40.60003 13.5334,-17.73334 33.6001,-28.00002 20.5333,-10.73334 48.0667,-10.73334 25.2,0 44.3333,9.33334 19.6,9.33334 32.6667,25.66669 13.0667,15.86668 19.6,37.33336 7,21.00001 7,45.2667 0,2.33333 -0.4666,5.6 0,2.8 0,4.66667 z m 175.9334,-15.40001 q -0.9333,-19.60001 -6.5333,-36.86669 -5.6,-17.73335 -16.8,-30.80002 -10.7334,-13.53335 -26.6001,-21.46669 -15.4,-7.93334 -35.4666,-7.93334 -21.4667,0 -37.8001,8.40001 -16.3333,7.93334 -27.5333,21.46668 -11.2,13.06668 -17.2667,30.80002 -6.0667,17.73335 -7.4667,36.40003 z m 218.3997,85.40006 h -0.9333 q -4.2,10.73334 -12.1334,20.53335 -7.9333,9.33334 -19.6,16.79996 -11.2,7.4667 -25.6667,11.6667 -14.4666,4.2 -31.7333,4.2 -38.2667,0 -59.2667,-16.3333 -21,-16.80003 -21,-51.33339 0,-21.00001 8.4,-34.06669 8.4,-13.53334 21,-21.00001 13.0666,-7.93334 28.4667,-11.20001 15.8666,-3.26667 30.3333,-4.66667 l 27.5334,-2.33334 q 19.1333,-1.4 29.8667,-4.2 11.2,-3.26667 16.8,-8.4 5.6,-5.60001 7,-14.00001 1.4,-8.40001 1.4,-21.00002 0,-9.80001 -3.7334,-18.20001 -3.7333,-8.40001 -11.6666,-14.93335 -7.9334,-6.53333 -20.5334,-10.26667 -12.6,-3.73334 -30.8,-3.73334 -32.2,0 -52.2667,15.86668 -19.6,15.86668 -21.4667,48.0667 h -17.7333 q 1.8666,-39.66669 25.2,-59.26671 23.8,-20.06668 67.2,-20.06668 43.4001,0 63.0001,17.26668 20.0666,16.80001 20.0666,44.33337 v 139.53343 q 0,5.13333 0,10.26667 0.4667,5.13334 1.8667,9.33334 1.4,4.2 4.6667,7.00001 3.2667,2.33333 9.3333,2.33333 4.6667,0 13.0667,-1.4 v 14.93339 q -7,1.8666 -14.4667,1.8666 -10.7333,0 -17.2667,-2.8 -6.0666,-2.8 -9.3333,-7.4667 -3.2667,-4.66662 -4.6667,-10.73329 -0.9333,-6.53334 -0.9333,-14.00001 z m 0,-88.66673 q -6.5333,7.93334 -20.0667,10.73334 -13.0667,2.8 -29.4,4.2 l -29.8667,2.80001 q -13.0667,1.4 -26.1333,4.2 -13.0667,2.33333 -23.8001,8.4 -10.2666,6.06668 -16.8,16.80002 -6.5333,10.26667 -6.5333,27.06668 0,26.60002 16.8,39.6667 16.8,12.59999 46.2,12.59999 30.3334,0 48.0667,-10.73333 17.7334,-11.2 27.0667,-25.20001 9.3334,-14.46668 11.6667,-27.53336 2.8,-13.53334 2.8,-18.20001 z m 91.9325,-50.40004 h 1.4 q 3.2667,-11.66667 11.6667,-21.93334 8.8667,-10.26668 21,-17.73335 12.6,-7.46667 27.5334,-11.20001 15.4,-4.2 31.7333,-3.73333 v 17.73334 q -14,-1.86667 -32.2,2.8 -17.7333,4.66667 -34.0667,20.53335 -6.5333,7.00001 -11.6666,13.53334 -4.6667,6.53334 -7.9334,14.46668 -3.2667,7.93334 -5.1333,17.73335 -1.8667,9.8 -2.3334,23.33335 v 131.1334 h -17.7333 V 773.07549 h 17.7333 z m 112.0001,-53.20003 h 17.7333 v 51.33337 h 0.9334 q 4.6666,-13.53335 13.0667,-23.80002 8.8666,-10.73334 20.0666,-18.20001 11.6667,-7.46667 25.2001,-11.20001 13.5333,-3.73334 27.5333,-3.73334 21,0 35.4667,5.13334 14.9333,5.13334 24.2667,13.53334 9.3333,8.40001 14.4667,19.13335 5.6,10.26667 7.9333,21.00001 2.3333,10.73335 2.8,21.00002 0.4667,9.80001 0.4667,17.26668 v 148.40008 h -17.7334 V 861.27555 q 0,-8.86667 -1.4,-22.40002 -1.4,-13.53334 -8.4,-25.66668 -6.5333,-12.60001 -20.5333,-21.46668 -13.5334,-8.86668 -37.8001,-8.86668 -20.5333,0 -36.4,7.46668 -15.8667,7.46667 -27.0667,21.00001 -11.2,13.06668 -17.2667,31.73336 -5.6,18.20001 -5.6,40.13336 v 129.7334 h -17.7333 z"
         id="path2" />
    </g>
  </g>
</svg>
