<svg width="858" height="131" viewBox="0 0 858 131" fill="none" xmlns="http://www.w3.org/2000/svg">
<g clip-path="url(#clip0_1_2)">
<rect x="-25" y="-68" width="924" height="239" fill="white"/>
<path fill-rule="evenodd" clip-rule="evenodd" d="M233.301 84.5268C220.092 75.4173 203.351 49.0885 188.626 33.8344C187.241 33.8186 185.915 34.1203 184.659 34.7854C183.984 35.1424 183.329 35.6052 182.691 36.1619C194.2 50.4362 206.032 66.795 215.868 73.4226L217.102 74.2091L233.301 84.5268Z" fill="#2A7E68"/>
<path fill-rule="evenodd" clip-rule="evenodd" d="M230.093 73.8425C234.141 78.896 238.129 83.6988 241.954 87.7283C253.766 87.1677 260.452 60.5779 267.048 34.2775L249.375 23.0091C243.921 44.7553 238.467 66.5011 230.093 73.8425Z" fill="#2A7E68"/>
<path fill-rule="evenodd" clip-rule="evenodd" d="M133.01 91.8416C147 86.5527 152.544 31.1177 166.949 23.4928C169.771 21.9993 172.942 22.338 176.361 23.9999L162.211 14.8351L160.317 13.6083C156.258 11.2006 152.514 10.4682 149.239 12.2013C136.57 18.9073 130.925 62.5295 120.232 76.5422C124.608 81.7006 128.917 87.1815 133.01 91.8416Z" fill="#2A7E68"/>
<path fill-rule="evenodd" clip-rule="evenodd" d="M32.435 86.5728C27.4729 83.292 22.3438 76.0318 17.2146 68.7717L-0.49525 57.4791C4.78381 64.9519 10.0627 72.4236 15.1595 75.5579L32.435 86.5728Z" fill="#2A7E68"/>
<path fill-rule="evenodd" clip-rule="evenodd" d="M32.4348 86.5727C27.4728 83.2918 22.3438 76.0317 17.2146 68.7717L-0.495249 57.4791C4.78381 64.9519 10.0627 72.4236 15.1595 75.5579L32.4348 86.5727Z" fill="#2A7E68"/>
<path fill-rule="evenodd" clip-rule="evenodd" d="M31.4616 85.9521C27.5132 82.9509 23.4481 77.5404 19.3963 71.8488C19.3962 71.8489 19.3961 71.8489 19.3958 71.8478C18.6691 70.8302 17.9417 69.8004 17.2146 68.7717L-0.495247 57.479C4.78381 64.9519 10.0627 72.4236 15.1595 75.5579L31.4616 85.9521Z" fill="#2A7E68"/>
<path fill-rule="evenodd" clip-rule="evenodd" d="M40.4928 87.7674C52.1443 82.9038 62.7625 50.8423 75.9339 47.4896C78.2621 46.8972 80.7457 47.0116 83.2602 47.8521L69.8466 39.3015L68.3879 38.372C64.8963 36.2958 61.4821 35.3683 58.2243 36.198C46.2981 39.2327 36.4653 65.8055 26.0635 74.4136L34.9243 80.0634C36.7831 82.6946 38.6419 85.3257 40.4928 87.7674Z" fill="#2A7E68"/>
<path fill-rule="evenodd" clip-rule="evenodd" d="M124.356 89.371C116.165 83.3411 106.327 68.8061 96.4927 58.4873C95.5313 58.4497 94.5811 58.5436 93.6437 58.7822C92.4513 59.0855 91.2797 59.6244 90.1265 60.357C97.1439 68.9014 103.82 77.0628 109.509 79.8547L124.356 89.371Z" fill="#2A7E68"/>
<path fill-rule="evenodd" clip-rule="evenodd" d="M148.98 103.448C163.77 102.913 169.118 48.0289 182.691 36.1619C183.329 35.6052 183.984 35.1424 184.659 34.7854C185.915 34.1203 187.241 33.8186 188.626 33.8344C190.072 33.8518 191.585 34.2155 193.153 34.8751L181.747 27.4882L176.361 23.9999C172.942 22.338 169.771 21.9993 166.949 23.4928C152.544 31.1177 147 86.5527 133.01 91.8416C136.641 95.9763 140.102 99.4642 143.289 101.507C145.305 102.799 147.209 103.513 148.98 103.448Z" fill="#27B08B"/>
<path fill-rule="evenodd" clip-rule="evenodd" d="M235.077 85.6574L250.799 95.671C247.991 93.7008 245.025 90.9641 241.954 87.7283C238.129 83.6988 234.141 78.896 230.093 73.8425C217.304 57.875 203.915 39.4035 193.153 34.8751C191.585 34.2155 190.072 33.8518 188.626 33.8344C203.351 49.0885 220.092 75.4173 233.301 84.5268L235.077 85.6574Z" fill="#27B08B"/>
<path fill-rule="evenodd" clip-rule="evenodd" d="M267.048 34.2774C260.452 60.5779 253.766 87.1677 241.954 87.7283C245.024 90.9641 247.991 93.7008 250.799 95.671C253.807 97.7816 256.635 99.0114 259.217 99.0295C271.371 99.1161 278.082 72.3547 284.794 45.5928L267.048 34.2774Z" fill="#27B08B"/>
<path fill-rule="evenodd" clip-rule="evenodd" d="M55.11 99.674C66.9371 100.011 77.4237 68.4263 90.1265 60.357C91.2797 59.6244 92.4513 59.0855 93.6437 58.7822C94.5811 58.5436 95.5313 58.4497 96.4927 58.4873C98.9416 58.5838 101.463 59.5299 104.024 61.0864L83.2602 47.8521C80.7457 47.0117 78.2621 46.8972 75.9339 47.4896C62.7625 50.8423 52.1443 82.9038 40.4928 87.7674C43.7457 92.0587 46.9742 95.7656 50.1347 97.8583C51.8144 98.9703 53.4751 99.6278 55.11 99.674Z" fill="#27B08B"/>
<path fill-rule="evenodd" clip-rule="evenodd" d="M133.01 91.8416C128.917 87.1815 124.608 81.7006 120.232 76.5422C114.839 70.1849 109.343 64.319 104.024 61.0863C101.463 59.5298 98.9416 58.5838 96.4927 58.4873C106.327 68.8061 116.165 83.3411 124.356 89.371L126.75 90.9053L143.289 101.507C140.102 99.4642 136.641 95.9763 133.01 91.8416Z" fill="#27B08B"/>
<path fill-rule="evenodd" clip-rule="evenodd" d="M40.4928 87.7674C38.6419 85.3258 36.7831 82.6946 34.9243 80.0634L26.0635 74.4136L17.2146 68.7717C17.9421 69.8015 18.6696 70.8312 19.3967 71.8499C23.7953 78.0111 28.1765 83.7572 32.4347 86.5726L50.1347 97.8582C46.9742 95.7656 43.7457 92.0587 40.4928 87.7674Z" fill="#27B08B"/>
<path d="M325.408 10.608H340L329.248 62.32L329.504 62.576L359.456 35.824H377.888L348.704 60.144L364.832 102H348.704L337.056 69.872L325.792 79.472L321.056 102H306.464L325.408 10.608ZM412.775 45.552C409.02 45.552 405.735 46.4907 402.919 48.368C400.188 50.2453 397.884 52.6347 396.007 55.536C394.13 58.352 392.722 61.5093 391.783 65.008C390.93 68.5067 390.503 71.92 390.503 75.248C390.503 80.112 391.698 84.1653 394.087 87.408C396.562 90.6507 400.444 92.272 405.735 92.272C409.49 92.272 412.732 91.376 415.463 89.584C418.279 87.7067 420.626 85.36 422.503 82.544C424.38 79.6427 425.746 76.4427 426.599 72.944C427.538 69.36 428.007 65.904 428.007 62.576C428.007 57.712 426.77 53.6587 424.295 50.416C421.906 47.1733 418.066 45.552 412.775 45.552ZM404.839 103.792C395.623 103.792 388.498 101.317 383.463 96.368C378.428 91.3333 375.911 84.1653 375.911 74.864C375.911 69.4027 376.807 64.24 378.599 59.376C380.391 54.4267 382.908 50.0747 386.151 46.32C389.479 42.5653 393.447 39.5787 398.055 37.36C402.748 35.1413 407.954 34.032 413.671 34.032C422.887 34.032 430.012 36.464 435.047 41.328C440.082 46.1067 442.599 53.1467 442.599 62.448C442.599 68.2507 441.746 73.6693 440.039 78.704C438.332 83.7387 435.815 88.1333 432.487 91.888C429.244 95.5573 425.276 98.4587 420.583 100.592C415.975 102.725 410.727 103.792 404.839 103.792ZM488.65 45.552C484.895 45.552 481.61 46.4907 478.794 48.368C476.063 50.2453 473.759 52.6347 471.882 55.536C470.005 58.352 468.597 61.5093 467.658 65.008C466.805 68.5067 466.378 71.92 466.378 75.248C466.378 80.112 467.573 84.1653 469.962 87.408C472.437 90.6507 476.319 92.272 481.61 92.272C485.365 92.272 488.607 91.376 491.338 89.584C494.154 87.7067 496.501 85.36 498.378 82.544C500.255 79.6427 501.621 76.4427 502.474 72.944C503.413 69.36 503.882 65.904 503.882 62.576C503.882 57.712 502.645 53.6587 500.17 50.416C497.781 47.1733 493.941 45.552 488.65 45.552ZM480.714 103.792C471.498 103.792 464.373 101.317 459.338 96.368C454.303 91.3333 451.786 84.1653 451.786 74.864C451.786 69.4027 452.682 64.24 454.474 59.376C456.266 54.4267 458.783 50.0747 462.026 46.32C465.354 42.5653 469.322 39.5787 473.93 37.36C478.623 35.1413 483.829 34.032 489.546 34.032C498.762 34.032 505.887 36.464 510.922 41.328C515.957 46.1067 518.474 53.1467 518.474 62.448C518.474 68.2507 517.621 73.6693 515.914 78.704C514.207 83.7387 511.69 88.1333 508.362 91.888C505.119 95.5573 501.151 98.4587 496.458 100.592C491.85 102.725 486.602 103.792 480.714 103.792ZM545.453 75.248C545.453 77.6373 545.709 79.856 546.221 81.904C546.818 83.952 547.672 85.744 548.781 87.28C549.976 88.816 551.512 90.0533 553.389 90.992C555.266 91.8453 557.485 92.272 560.045 92.272C563.97 92.272 567.341 91.4187 570.157 89.712C573.058 87.92 575.405 85.616 577.197 82.8C579.074 79.984 580.44 76.8267 581.293 73.328C582.232 69.8293 582.701 66.3307 582.701 62.832C582.701 60.4427 582.402 58.224 581.805 56.176C581.293 54.0427 580.44 52.208 579.245 50.672C578.05 49.0507 576.514 47.8133 574.637 46.96C572.845 46.0213 570.669 45.552 568.109 45.552C564.184 45.552 560.77 46.448 557.869 48.24C555.053 50.032 552.706 52.3787 550.829 55.28C549.037 58.096 547.672 61.296 546.733 64.88C545.88 68.3787 545.453 71.8347 545.453 75.248ZM538.541 35.824H553.005L551.085 44.272L551.341 44.528C553.645 41.2 556.674 38.64 560.429 36.848C564.184 34.9707 568.109 34.032 572.205 34.032C576.301 34.032 579.928 34.7147 583.085 36.08C586.242 37.4453 588.845 39.3653 590.893 41.84C593.026 44.2293 594.605 47.1307 595.629 50.544C596.738 53.872 597.293 57.4987 597.293 61.424C597.293 66.4587 596.61 71.536 595.245 76.656C593.88 81.6907 591.789 86.2133 588.973 90.224C586.157 94.2347 582.616 97.52 578.349 100.08C574.082 102.555 569.09 103.792 563.373 103.792C558.509 103.792 554.2 102.981 550.445 101.36C546.69 99.6533 543.789 96.4533 541.741 91.76H541.485L534.317 126.448H519.725L538.541 35.824Z" fill="#0B3B2C"/>
<path d="M617.559 10.608V102H612.695V10.608H617.559ZM634.963 69.744V70.512C634.963 74.352 635.475 78.0213 636.499 81.52C637.523 85.0187 639.016 88.0907 640.979 90.736C643.027 93.3813 645.544 95.472 648.531 97.008C651.603 98.544 655.144 99.312 659.155 99.312C665.726 99.312 670.931 97.6053 674.771 94.192C678.611 90.6933 681.256 85.872 682.707 79.728H687.571C686.12 87.408 682.963 93.296 678.099 97.392C673.32 101.488 666.963 103.536 659.027 103.536C654.163 103.536 649.896 102.683 646.227 100.976C642.643 99.184 639.614 96.7947 637.139 93.808C634.75 90.736 632.958 87.152 631.763 83.056C630.568 78.8747 629.971 74.3947 629.971 69.616C629.971 65.008 630.568 60.6133 631.763 56.432C633.043 52.1653 634.92 48.4533 637.395 45.296C639.87 42.0533 642.942 39.4933 646.611 37.616C650.366 35.6533 654.76 34.672 659.795 34.672C664.403 34.672 668.456 35.5253 671.955 37.232C675.539 38.9387 678.526 41.2853 680.915 44.272C683.304 47.1733 685.096 50.5867 686.291 54.512C687.571 58.352 688.211 62.4907 688.211 66.928C688.211 67.3547 688.168 67.8667 688.083 68.464C688.083 68.976 688.083 69.4027 688.083 69.744H634.963ZM683.219 65.52C683.048 61.936 682.451 58.5653 681.427 55.408C680.403 52.1653 678.867 49.3493 676.819 46.96C674.856 44.4853 672.424 42.5227 669.523 41.072C666.707 39.6213 663.464 38.896 659.795 38.896C655.87 38.896 652.414 39.664 649.427 41.2C646.44 42.6507 643.923 44.6133 641.875 47.088C639.827 49.4773 638.248 52.2933 637.139 55.536C636.03 58.7787 635.347 62.1067 635.091 65.52H683.219ZM743.066 88.944H742.81C742.042 90.9067 740.933 92.784 739.482 94.576C738.031 96.2827 736.239 97.8187 734.106 99.184C732.058 100.549 729.711 101.616 727.066 102.384C724.421 103.152 721.519 103.536 718.362 103.536C711.365 103.536 705.946 102.043 702.106 99.056C698.266 95.984 696.346 91.2907 696.346 84.976C696.346 81.136 697.114 78.0213 698.65 75.632C700.186 73.1573 702.106 71.2373 704.41 69.872C706.799 68.4213 709.402 67.3973 712.218 66.8C715.119 66.2027 717.893 65.776 720.538 65.52L728.09 64.88C731.589 64.624 734.319 64.24 736.282 63.728C738.33 63.1307 739.866 62.3627 740.89 61.424C741.914 60.4 742.554 59.12 742.81 57.584C743.066 56.048 743.194 54.128 743.194 51.824C743.194 50.032 742.853 48.368 742.17 46.832C741.487 45.296 740.421 43.9307 738.97 42.736C737.519 41.5413 735.642 40.6027 733.338 39.92C731.034 39.2373 728.218 38.896 724.89 38.896C719.002 38.896 714.223 40.3467 710.554 43.248C706.97 46.1493 705.007 50.544 704.666 56.432H699.802C700.143 49.1787 702.447 43.76 706.714 40.176C711.066 36.5067 717.21 34.672 725.146 34.672C733.082 34.672 738.842 36.2507 742.426 39.408C746.095 42.48 747.93 46.5333 747.93 51.568V89.84C747.93 90.7787 747.93 91.7173 747.93 92.656C748.015 93.5947 748.186 94.448 748.442 95.216C748.698 95.984 749.125 96.624 749.722 97.136C750.319 97.5627 751.173 97.776 752.282 97.776C753.135 97.776 754.33 97.648 755.866 97.392V101.488C754.586 101.829 753.263 102 751.898 102C749.935 102 748.357 101.744 747.162 101.232C746.053 100.72 745.199 100.037 744.602 99.184C744.005 98.3307 743.578 97.3493 743.322 96.24C743.151 95.0453 743.066 93.7653 743.066 92.4V88.944ZM743.066 64.624C741.871 66.0747 740.037 67.056 737.562 67.568C735.173 68.08 732.485 68.464 729.498 68.72L721.306 69.488C718.917 69.744 716.527 70.128 714.138 70.64C711.749 71.0667 709.573 71.8347 707.61 72.944C705.733 74.0533 704.197 75.5893 703.002 77.552C701.807 79.4293 701.21 81.904 701.21 84.976C701.21 89.84 702.746 93.4667 705.818 95.856C708.89 98.16 713.114 99.312 718.49 99.312C724.037 99.312 728.431 98.3307 731.674 96.368C734.917 94.32 737.391 92.016 739.098 89.456C740.805 86.8107 741.871 84.2933 742.298 81.904C742.81 79.4293 743.066 77.7653 743.066 76.912V64.624ZM768.282 50.8H768.666C769.263 48.6667 770.33 46.6613 771.866 44.784C773.487 42.9067 775.407 41.2853 777.626 39.92C779.93 38.5547 782.447 37.5307 785.178 36.848C787.994 36.08 790.895 35.7387 793.882 35.824V40.688C791.322 40.3467 788.378 40.6027 785.05 41.456C781.807 42.3093 778.693 44.1867 775.706 47.088C774.511 48.368 773.445 49.6053 772.506 50.8C771.653 51.9947 770.927 53.3173 770.33 54.768C769.733 56.2187 769.263 57.84 768.922 59.632C768.581 61.424 768.367 63.5573 768.282 66.032V102H763.418V36.208H768.282V50.8ZM799.043 36.208H803.907V50.288H804.163C805.016 47.8133 806.211 45.6373 807.747 43.76C809.368 41.7973 811.203 40.1333 813.251 38.768C815.384 37.4027 817.688 36.3787 820.163 35.696C822.638 35.0133 825.155 34.672 827.715 34.672C831.555 34.672 834.798 35.1413 837.443 36.08C840.174 37.0187 842.392 38.256 844.099 39.792C845.806 41.328 847.128 43.0773 848.067 45.04C849.091 46.9173 849.816 48.8373 850.243 50.8C850.67 52.7627 850.926 54.6827 851.011 56.56C851.096 58.352 851.139 59.9307 851.139 61.296V102H846.275V60.4C846.275 58.7787 846.147 56.7307 845.891 54.256C845.635 51.7813 844.867 49.4347 843.587 47.216C842.392 44.912 840.515 42.9493 837.955 41.328C835.48 39.7067 832.024 38.896 827.587 38.896C823.832 38.896 820.504 39.5787 817.603 40.944C814.702 42.3093 812.227 44.2293 810.179 46.704C808.131 49.0933 806.552 51.9947 805.443 55.408C804.419 58.736 803.907 62.4053 803.907 66.416V102H799.043V36.208Z" fill="#0B3B2C"/>
</g>
<defs>
<clipPath id="clip0_1_2">
<rect width="858" height="131" fill="white"/>
</clipPath>
</defs>
</svg>
